<svg width="1685" height="615" xmlns="http://www.w3.org/2000/svg" xmlns:xlink="http://www.w3.org/1999/xlink" xml:space="preserve" overflow="hidden"><defs><clipPath id="clip0"><rect x="1876" y="830" width="1685" height="615"/></clipPath><clipPath id="clip1"><rect x="1875" y="830" width="1675" height="264"/></clipPath><clipPath id="clip2"><rect x="1875" y="830" width="1675" height="264"/></clipPath><clipPath id="clip3"><rect x="1875" y="830" width="1675" height="264"/></clipPath></defs><g clip-path="url(#clip0)" transform="translate(-1876 -830)"><g clip-path="url(#clip1)"><g clip-path="url(#clip2)"><g clip-path="url(#clip3)"><g><path d="M330.91 8.70092 193.459 7.83994C154.156 7.62469 118.505 22.6926 91.6595 47.447L128.169 86.8386C145.351 70.9099 168.117 61.2234 193.244 61.4386L277.004 62.0844 276.359 146.034C276.144 171.435 266.05 195.328 248.01 213.194 247.366 213.84 246.507 214.7 245.862 215.347L282.373 254.739C283.661 253.662 284.735 252.586 286.024 251.294 314.373 223.311 330.051 186.072 330.266 146.25L330.91 8.70092Z" fill="#191E31" transform="matrix(1.00022 0 0 1 1876 830)"/><path d="M144.491 200.922 60.7321 200.276 61.3765 116.326C61.5912 88.9888 73.1886 64.4497 91.8731 47.2293L55.5777 7.62224C26.3694 34.7444 8.11419 73.2753 7.68467 116.111L6.82561 253.659 144.276 254.736C182.29 254.951 218.371 240.96 246.076 215.129L209.566 175.522C191.955 192.097 168.975 200.922 144.491 200.922Z" fill="#191E31" transform="matrix(1.00022 0 0 1 1876 830)"/></g><path d="M1640.8 258.982 1582.65 184.984 1526.42 258.982 1497.21 258.982 1559.34 179.878C1564.94 172.754 1564.9 162.714 1559.23 155.64L1497.21 78.1501 1526.42 78.1501 1582.65 150.447 1640.8 78.1501 1670 78.1501 1605.95 155.38C1600 162.548 1599.96 172.922 1605.84 180.145L1670 258.982 1640.8 258.982Z" fill="#191E31" transform="matrix(1.00022 0 0 1 1876 830)"/><path d="M1463.76 79.3001 1463.76 260.965 1440.38 260.965 1440.38 225.047C1433.04 237.25 1423.3 246.575 1411.15 253.022 1399.23 259.469 1385.7 262.692 1370.57 262.692 1353.6 262.692 1338.25 258.778 1324.49 250.95 1310.74 243.121 1299.96 232.184 1292.17 218.139 1284.37 204.094 1280.48 188.092 1280.48 170.132 1280.48 152.173 1284.37 136.171 1292.17 122.126 1299.96 108.081 1310.74 97.259 1324.49 89.6615 1338.25 81.8328 1353.6 77.9186 1370.57 77.9186 1385.24 77.9186 1398.43 81.0271 1410.12 87.2435 1422.04 93.2303 1431.78 102.094 1439.35 113.838L1439.35 79.3001 1463.76 79.3001ZM1372.64 240.933C1385.24 240.933 1396.59 238.056 1406.68 232.299 1417 226.313 1425.02 217.909 1430.75 207.088 1436.71 196.266 1439.69 183.948 1439.69 170.132 1439.69 156.318 1436.71 144 1430.75 133.178 1425.02 122.356 1417 114.067 1406.68 108.311 1396.59 102.325 1385.24 99.3319 1372.64 99.3319 1359.8 99.3319 1348.22 102.325 1337.9 108.311 1327.82 114.067 1319.79 122.356 1313.83 133.178 1308.1 144 1305.24 156.318 1305.24 170.132 1305.24 183.948 1308.1 196.266 1313.83 207.088 1319.79 217.909 1327.82 226.313 1337.9 232.299 1348.22 238.056 1359.8 240.933 1372.64 240.933Z" fill="#191E31" transform="matrix(1.00022 0 0 1 1876 830)"/><path d="M1267.7 249.919C1263.12 254.064 1257.5 257.286 1250.85 259.589 1244.21 261.662 1237.21 262.698 1229.88 262.698 1212.91 262.698 1199.84 258.093 1190.67 248.882 1181.5 239.673 1176.92 226.664 1176.92 209.856L1176.92 39.5878 1201.33 39.5878 1201.33 79.3054 1256.01 79.3054 1256.01 100.028 1220.84 100.028C1210.06 100.028 1201.33 108.761 1201.33 119.534L1201.33 208.474C1201.33 219.296 1203.97 227.585 1209.24 233.341 1214.51 238.867 1222.19 241.63 1232.28 241.63 1243.28 241.63 1252.22 238.522 1259.1 232.305L1267.7 249.919Z" fill="#191E31" transform="matrix(1.00022 0 0 1 1876 830)"/><path d="M1055.35 240.933C1066.58 240.933 1076.9 238.977 1086.29 235.062 1095.93 230.918 1104.07 224.932 1110.71 217.103L1124.47 232.99C1116.44 242.661 1106.47 250.028 1094.55 255.094 1082.63 260.16 1069.45 262.692 1055 262.692 1036.44 262.692 1019.93 258.778 1005.49 250.95 991.04 242.891 979.81 231.839 971.785 217.794 963.759 203.748 959.751 187.862 959.751 170.132 959.751 152.404 963.528 136.517 971.099 122.471 978.894 108.426 989.549 97.4893 1003.07 89.6615 1016.61 81.8328 1031.96 77.9186 1049.15 77.9186 1065.21 77.9186 1079.65 81.6025 1092.49 88.9705 1105.56 96.3385 1115.87 106.584 1123.43 119.709 1131.23 132.833 1132.76 145.841 1132.76 145.841L1118.44 169.39 987.262 193.618C991.845 208.354 1000.1 219.981 1012.02 228.501 1024.17 236.789 1038.61 240.933 1055.35 240.933ZM1049.15 98.986C1036.55 98.986 1025.2 101.979 1015.12 107.965 1005.26 113.722 997.463 121.896 991.733 132.487 986.226 142.848 983.476 154.821 983.476 168.406 983.476 171.859 983.245 170.395 983.476 172.006L1091.3 153.147C1101.95 151.283 1109.51 140.792 1104.5 131.202 1101.12 124.715 1096.5 119.072 1090.42 113.838 1079.19 103.937 1065.44 98.986 1049.15 98.986Z" fill="#191E31" transform="matrix(1.00022 0 0 1 1876 830)"/><path d="M845.067 77.9186C867.764 77.9186 885.529 84.4804 898.368 97.6049 911.438 110.729 917.974 130.79 917.974 156.347L917.974 258.981 891.235 258.981 891.235 158.269C891.235 139.388 888.972 124.774 879.799 114.874 870.857 104.973 858.137 100.022 841.632 100.022 822.831 100.022 808.047 105.893 797.272 117.636 786.494 129.149 781.725 144.937 781.725 165.429L781.725 258.981 754.955 258.981 754.955 158.128C754.955 139.247 752.107 124.774 742.937 114.874 733.995 104.973 721.157 100.022 704.422 100.022 685.852 100.022 671.066 105.893 660.061 117.636 649.286 129.149 645.441 144.856 645.441 165.347L645.441 258.981 618.671 258.981 618.671 78.15 645.441 78.15 645.441 112.362C651.86 101.309 658.228 92.8844 669.69 86.8984 681.153 80.9115 694.335 77.9186 709.236 77.9186 724.367 77.9186 737.434 81.1419 748.438 87.5894 759.672 94.036 768.04 103.591 773.542 116.255 780.19 104.282 789.704 94.9565 802.086 88.2795 814.694 81.3722 829.024 77.9186 845.067 77.9186Z" fill="#191E31" transform="matrix(1.00022 0 0 1 1876 830)"/><path d="M531.048 78.1519 557.818 78.1519 557.818 258.982 531.048 258.982 531.048 78.1519ZM543.772 44.2356C538.729 44.2356 534.488 42.5087 531.049 39.055 527.611 35.6013 525.891 31.4569 525.891 26.6217 525.891 22.0168 527.611 17.9874 531.049 14.5337 534.488 11.08 538.729 9.35308 543.772 9.35308 548.816 9.35308 553.057 11.08 556.496 14.5337 559.935 17.7571 561.655 21.6714 561.655 26.2763 561.655 31.3417 559.935 35.6013 556.496 39.055 553.057 42.5087 548.816 44.2356 543.772 44.2356Z" fill="#191E31" transform="matrix(1.00022 0 0 1 1876 830)"/><path d="M450.033 258.982 423.981 235.434 423.981-0.0466975 450.033-0.0466975 450.033 215.927C450.033 226.7 458.766 235.434 469.539 235.434L476.084 235.434 476.084 258.982 450.033 258.982Z" fill="#191E31" transform="matrix(1.00022 0 0 1 1876 830)"/></g></g></g><path d="M3210.53 1224.56C3210.53 1214 3222.46 1202 3233.77 1202L3540.52 1202.86C3551.83 1202.86 3561 1211.42 3561 1221.98L3511.85 1355.3C3511.85 1365.85 3496.54 1377.85 3485.23 1377.85L3178.48 1379C3167.17 1379 3158 1370.44 3158 1359.88L3210.53 1224.56Z" fill="#191E31" fill-rule="evenodd"/><text fill="#FFFFFF" font-family="Poppins,Poppins_MSFontService,sans-serif" font-style="oblique" font-weight="700" font-size="128" transform="matrix(1 0 0 1 3217 1332)">APP</text></g></svg>